<?xml version="1.0" encoding="utf-8"?>
<svg xmlns="http://www.w3.org/2000/svg" xmlns:xlink="http://www.w3.org/1999/xlink" version= "1.1" width="354px" height="254px" viewBox="274 824 354 254">
<g id="layer1">
<g style="fill:rgb(0,0,0); fill-opacity:1.0; stroke-linejoin: miter">
</g>
<g style="fill:rgb(250,251,250); fill-opacity:1.0; stroke-linejoin: miter">
<path d="M273.999,823.80615C273.94785,823.80615,273.89877,823.8265,273.8626,823.8627C273.82645,823.89886,273.80612,823.9479,273.80612,823.999L273.80713,1078.0C273.80713,1078.1066,273.8935,1078.1929,274.0,1078.1929L628.001,1078.1938C628.0521,1078.1938,628.10114,1078.1735,628.1373,1078.1373C628.1735,1078.1012,628.19385,1078.0521,628.19385,1078.001L628.1929,824.0C628.1929,823.8935,628.1065,823.8071,628.0,823.8071L273.999,823.80615 Z"/>
</g>
</g>
<g id="layer2">
<g style="fill:rgb(38,51,67); fill-opacity:1.0; stroke-linejoin: miter">
<path d="M578.43414,1043.0426L577.3468,1043.6874Q569.62024,1045.6293,532.1426,1046.7479Q494.40558,1047.8651,443.26935,1047.5724Q394.46655,1047.1952,365.20844,1045.6547Q355.8338,1045.1569,349.76514,1044.5768L344.66473,1043.982Q340.46173,1043.3695,340.4154,1042.7101Q341.6944,1040.6884,375.27716,1039.3915Q408.85986,1038.0948,459.4314,1038.1144Q510.00287,1038.2362,543.58185,1039.6268Q577.16077,1041.0175,578.43414,1043.0426"/>
</g>
<g style="fill:rgb(40,44,57); fill-opacity:1.0; stroke-linejoin: miter">
<path d="M396.49924,991.8559L399.859,991.2139L410.21094,1045.3071L406.8517,1045.951L396.49924,991.8559"/>
</g>
<g style="fill:rgb(234,246,241); fill-opacity:1.0; stroke-linejoin: miter">
<path d="M534.1288,933.8544L533.4126,944.8498Q528.225,978.08514,502.75436,998.0592Q477.10715,1018.0175,442.2864,1014.3296Q409.051,1009.14197,389.077,983.6714Q382.67694,975.43805,378.52432,965.7216L375.03024,955.7308Q372.14642,945.41736,372.0904,934.19885Q372.886,899.769,395.69855,876.8592Q418.51114,853.9494,452.93732,853.00745Q487.36722,853.80304,510.277,876.6156Q533.18677,899.42816,534.1288,933.8544"/>
</g>
<g style="fill:rgb(1,25,48); fill-opacity:1.0; stroke-linejoin: miter">
<path d="M379.48706,981.5138L379.1764,983.63904C378.46103,987.9877,378.05844,991.90125,378.30127,995.36194C378.55475,998.97437,378.25266,1004.9786,379.80606,1005.83234C381.83176,1008.0527,391.79358,1009.9028,403.95923,1006.8841L406.47833,1042.8818L417.38477,1040.9528C417.87946,1025.4885,417.97052,1014.87335,417.64264,1009.10815C417.22357,1001.7393,416.1928,997.207,414.7558,995.3572C413.3969,993.608,411.7646,992.53674,409.7171,992.0447C407.52942,991.5189,402.97473,991.09894,395.98987,991.02747L392.15552,978.2858L379.48706,981.5138 Z"/>
</g>
<g style="fill:rgb(0,0,0); fill-opacity:0.99607843; stroke-linejoin: miter">
<path d="M413.47614,1039.7109L414.1516,1039.7189Q417.1986,1039.7516,418.5642,1039.8973Q420.3286,1040.0773,421.09778,1040.4308Q421.46838,1040.5941,421.71863,1040.8043Q421.9026,1040.8864,422.2533,1041.5194Q422.552,1042.1725,422.4154,1043.6117L405.80072,1043.7708L407.01495,1039.4734L413.47614,1039.7109"/>
</g>
<g style="fill:rgb(40,44,57); fill-opacity:1.0; stroke-linejoin: miter">
<path d="M378.5643,991.8782L375.20593,991.229L364.73804,1045.2998L368.0959,1045.9509L378.5643,991.8782 Z"/>
</g>
<g style="fill:rgb(164,47,45); fill-opacity:1.0; stroke-linejoin: miter">
<path d="M380.68637,996.7407L375.8469,965.9458Q370.34042,963.8334,368.44492,963.73865Q365.9501,963.46924,364.6736,964.5262Q363.2861,965.4909,362.93802,968.6648Q362.67276,972.1194,363.42868,976.90564Q364.65256,984.33594,366.556,990.24304Q367.89792,994.6372,369.39938,996.4767Q369.91513,997.20074,371.1179,997.3968Q375.34225,996.7707,380.68637,996.7407"/>
</g>
<g style="fill:rgb(0,0,0); fill-opacity:1.0; stroke-linejoin: miter">
<path d="M377.72217,953.4877L377.71133,953.4519Q376.88846,949.3925,376.65762,948.76447Q376.44788,948.0452,376.20355,947.49066Q375.23807,945.52203,375.00928,944.80334Q374.51498,943.3065,374.36188,942.38873Q374.02887,940.3951,374.1102,939.5333Q374.13052,938.96814,374.22894,938.4438L374.3508,937.9359Q374.49646,937.44336,374.72916,937.01605Q375.20135,936.1622,375.94263,935.5674Q376.45648,935.0494,378.0426,934.4794Q379.1379,934.1501,380.4822,934.15533Q381.99966,934.15845,384.4826,934.59094Q385.33963,934.5771,385.7382,934.5029Q386.78625,934.5185,387.2348,932.8358Q388.2237,934.1565,388.3853,934.8928Q388.78082,936.03784,388.0923,939.008L384.40878,947.03674L377.72217,953.4877 Z"/>
</g>
<g style="fill:rgb(201,73,123); fill-opacity:0.99607843; stroke-linejoin: miter">
<path d="M424.11743,1012.349L424.11743,1012.349L424.1173,1012.349L424.11743,1012.349"/>
</g>
<g style="fill:rgb(83,150,190); fill-opacity:0.99607843; stroke-linejoin: miter">
<path d="M381.5257,938.99225L381.52576,938.9925L381.52576,938.9925L381.52576,938.9925L381.5257,938.99225L381.52576,938.9925L381.52576,938.9925Q381.52576,938.9925,381.5257,938.99225"/>
</g>
<g style="fill:rgb(255,200,166); fill-opacity:0.99607843; stroke-linejoin: miter">
<path d="M411.9761,977.3852L411.9761,977.38544L411.9761,977.3852L411.9761,977.38544"/>
</g>
<g style="fill:rgb(254,186,155); fill-opacity:1.0; stroke-linejoin: miter">
<path d="M412.46555,981.11957L420.1448,978.4793L423.6227,980.32806L412.8623,984.0782L407.41534,982.8309L412.46555,981.11957 Z"/>
</g>
<g style="fill:rgb(1,25,48); fill-opacity:1.0; stroke-linejoin: miter">
<path d="M381.82153,970.46234L388.6389,971.35376L412.93256,987.40375L416.91766,980.3045C404.41956,970.0224,396.4334,963.7571,392.97812,961.4804C390.03247,959.5397,388.39575,958.58417,388.11465,958.45154C386.30515,957.59717,384.92615,957.0737,383.89548,956.97144C382.5329,956.83545,381.272,957.2929,380.1021,958.4353L381.82153,970.46234 Z"/>
</g>
<g style="fill:rgb(0,0,0); fill-opacity:0.99607843; stroke-linejoin: miter">
<path d="M397.0843,965.65186L397.0843,965.65186L397.0843,965.65186L397.0843,965.65186"/>
</g>
<g style="fill:rgb(125,139,150); fill-opacity:0.99607843; stroke-linejoin: miter">
<path d="M376.79834,978.3968L376.79828,978.39703L376.79834,978.3973L376.79834,978.3968 Z"/>
</g>
<g style="fill:rgb(255,186,155); fill-opacity:0.99607843; stroke-linejoin: miter">
<path d="M377.26233,955.25L377.26266,955.25024L377.3836,952.1944L377.20648,951.0577Q378.45956,950.8682,379.10138,950.2384Q379.6775,949.6238,379.89218,948.5414Q380.03116,947.6121,379.95834,947.2055Q379.9305,946.9396,379.8766,946.6807Q379.46927,945.04114,379.50702,944.94525Q379.4346,944.5216,379.647,943.90234Q380.35742,942.57806,381.18817,942.85236Q381.41574,942.8894,381.79776,943.31964Q381.94968,943.44257,382.7756,944.8506Q382.99637,945.181,383.0842,945.0671Q383.19073,944.8136,383.19113,944.515Q383.24387,942.3474,383.31265,941.5692Q383.46774,940.1448,383.56332,939.91327Q383.83124,938.4928,385.17496,937.48456Q387.32312,936.26556,388.54904,937.08636Q389.8007,939.61414,389.93518,940.44965Q390.15753,941.3611,389.61975,942.3271Q391.8292,944.9376,391.88812,945.5844Q392.1335,946.3481,390.53363,946.55896Q390.93402,947.6892,390.87146,948.0103Q390.85596,948.3746,390.29938,948.6162Q390.7251,948.6405,390.68518,949.16504Q390.62958,949.6272,390.2475,950.7293Q390.49634,951.9383,390.37238,952.51416Q390.2003,953.058,389.95004,953.1698Q389.59665,953.4951,387.9827,953.71454L386.08478,953.3022L385.1178,954.7717L377.26233,955.25 Z"/>
</g>
<g style="fill:rgb(1,25,48); fill-opacity:1.0; stroke-linejoin: miter">
<path d="M386.08957,998.7515L386.08957,998.7525L386.08963,998.752L385.74924,999.5649C383.9458,1003.9588,392.88272,1008.0444,391.68518,1008.75494C390.2952,1009.5798,378.68033,1009.84717,376.36893,1009.45166C376.1813,1008.9043,375.33005,1006.7654,375.1436,1006.2149C374.1218,1003.19824,373.54993,1000.4902,373.36627,998.0932C373.33185,997.64386,373.2333,996.6097,373.30563,994.98773C373.56683,989.1291,373.72418,986.1136,373.72015,985.9212C373.70865,985.3732,373.73215,984.2769,373.66183,982.6318C373.5715,980.5179,372.957,976.5516,372.05725,970.69775C371.7648,968.7951,371.77173,967.6677,371.7571,967.344C371.71088,966.3207,371.8117,965.05054,372.05853,963.50916C372.11737,963.1418,372.36533,962.2071,372.98026,960.7469C373.5891,959.30115,374.77853,957.53033,376.47543,955.40344L377.2433,952.3853L386.15964,953.901L386.2202,956.4755C389.89407,961.1331,391.99197,964.7263,392.74924,967.1862C393.58063,969.88696,394.29388,972.6749,394.65585,975.62604C394.744,975.6838,393.79648,979.8842,394.67065,989.2271C394.94516,992.16095,396.61658,994.7048,396.8155,995.8619C397.25394,998.41254,397.77917,1000.2111,398.40305,1001.25604C396.418,1002.32904,394.73874,1002.61707,393.31808,1002.32806C391.999,1002.0597,389.57733,1000.93756,386.08957,998.7515L386.08963,998.752L386.08957,998.7515 Z"/>
</g>
<g style="fill:rgb(0,0,0); fill-opacity:0.99607843; stroke-linejoin: miter">
<path d="M397.43277,970.65344L397.43277,970.65344L397.43277,970.6537L397.43277,970.65344"/>
</g>
<g style="fill:rgb(254,186,155); fill-opacity:1.0; stroke-linejoin: miter">
<path d="M412.41562,983.488L420.09512,980.84796L423.57285,982.69684L412.81256,986.4467L407.36542,985.1993L412.41562,983.488 Z"/>
</g>
<g style="fill:rgb(1,25,48); fill-opacity:1.0; stroke-linejoin: miter">
<path d="M381.77167,972.83093L388.589,973.7223L412.8827,989.77216L416.86804,982.6733C404.3697,972.39105,396.3834,966.12573,392.92822,963.8492C389.9826,961.9082,388.34573,960.9528,388.06476,960.8201C386.25543,959.9658,384.8763,959.4426,383.84552,959.3397C382.48306,959.2042,381.22208,959.66187,380.0521,960.80396L381.77167,972.83093 Z"/>
</g>
<g style="fill:rgb(0,0,0); fill-opacity:0.99607843; stroke-linejoin: miter">
<path d="M425.93817,998.5261L425.93817,998.5261L425.93817,998.5261L425.93817,998.5261"/>
</g>
<g style="fill:rgb(1,25,48); fill-opacity:1.0; stroke-linejoin: miter">
<path d="M414.90726,993.3328L399.08405,994.55206L383.26083,995.7713Q383.82797,1003.1287,384.39508,1010.48615L416.04138,1008.0457Q415.4743,1000.6893,414.90726,993.3328"/>
</g>
<g style="fill:rgb(164,47,45); fill-opacity:1.0; stroke-linejoin: miter">
<path d="M409.17053,1008.444L387.2949,1008.47736L365.41922,1008.5108Q365.42258,1010.7335,365.426,1012.9562Q387.30167,1012.9227,409.17734,1012.8894Q409.17395,1010.6667,409.17053,1008.444"/>
</g>
<g style="fill:rgb(0,0,0); fill-opacity:1.0; stroke-linejoin: miter">
<path d="M422.76758,1037.8807L422.76758,1037.8807Q402.30222,1038.7985,422.76758,1037.8807"/>
</g>
<g style="fill:rgb(40,44,57); fill-opacity:1.0; stroke-linejoin: miter">
<path d="M466.04916,989.98236L469.25085,989.3862L478.8648,1040.9338L475.66364,1041.5322L466.04916,989.98236"/>
</g>
<g style="fill:rgb(40,44,57); fill-opacity:1.0; stroke-linejoin: miter">
<path d="M446.12604,990.03845L444.52692,989.7312L442.92783,989.42395Q437.97266,1015.1697,433.01752,1040.9153Q434.61636,1041.2239,436.21518,1041.5322Q441.17062,1015.7853,446.12604,990.03845"/>
</g>
<g style="fill:rgb(164,47,45); fill-opacity:1.0; stroke-linejoin: miter">
<path d="M434.20392,1003.6701L477.9553,1003.72003L477.95026,1008.1654L434.19882,1008.11554L434.20392,1003.6701"/>
</g>
<g style="fill:rgb(0,0,0); fill-opacity:1.0; stroke-linejoin: miter">
<path d="M498.75336,1030.0732L498.5875,1029.857L499.56567,1035.9519Q496.8896,1037.3749,495.82248,1037.7874Q495.3534,1038.0366,492.52994,1038.8483Q491.82535,1039.1113,491.71097,1039.1907Q490.8304,1039.7052,490.65518,1040.0188Q490.3725,1040.4895,490.4355,1040.5758Q490.43808,1040.756,490.571,1040.9131Q490.9625,1041.2582,491.47852,1041.3307Q492.2744,1041.4858,493.59653,1041.4928Q494.89203,1041.493,495.8052,1041.4495Q496.8047,1041.4194,500.2844,1041.1935L506.5236,1040.9928L505.19974,1030.076L498.75336,1030.0732"/>
</g>
<g style="fill:rgb(0,0,0); fill-opacity:1.0; stroke-linejoin: miter">
<path d="M489.2257,1029.3662L488.15054,1034.7311Q485.13507,1036.3204,484.274,1036.6288Q483.6245,1036.906,481.11478,1037.6274Q480.67596,1037.7883,480.37576,1037.9255Q479.23535,1038.542,479.04373,1039.1725Q478.8569,1040.1055,481.02435,1040.239Q482.33777,1040.3013,483.8659,1040.248Q486.03076,1040.1661,488.86923,1039.9727L495.1084,1039.7719L495.0054,1028.8842L489.2257,1029.3662"/>
</g>
<g style="fill:rgb(0,0,0); fill-opacity:1.0; stroke-linejoin: miter">
<path d="M496.8731,990.19147L521.2807,988.32056L522.5626,1005.03503L498.15515,1006.9079L496.8731,990.19147 Z"/>
</g>
<g style="fill:rgb(40,44,57); fill-opacity:1.0; stroke-linejoin: miter">
<path d="M534.569,990.27655L537.76624,989.6572L547.7527,1041.1342L544.5559,1041.7554L534.569,990.27655 Z"/>
</g>
<g style="fill:rgb(40,44,57); fill-opacity:1.0; stroke-linejoin: miter">
<path d="M518.57983,991.06055L516.9808,990.7533L515.38165,990.44604Q510.4265,1016.19183,505.4713,1041.9375Q507.0702,1042.2458,508.669,1042.5542Q513.62445,1016.8073,518.57983,991.06055"/>
</g>
<g style="fill:rgb(164,47,45); fill-opacity:1.0; stroke-linejoin: miter">
<path d="M533.6772,993.784L538.50476,962.98724Q544.0104,960.8727,545.9059,960.7772Q548.4006,960.50684,549.6775,961.5633Q551.06537,962.52747,551.4147,965.70123Q551.6813,969.15576,550.9272,973.94226Q549.7062,981.3731,547.805,987.28094Q546.46484,991.67554,544.9641,993.51556Q544.4486,994.2398,543.246,994.43634Q539.02136,993.8119,533.6772,993.784"/>
</g>
<g style="fill:rgb(255,182,152); fill-opacity:1.0; stroke-linejoin: miter">
<path d="M501.87268,962.3128L502.6711,963.0554L504.158,960.2862Q501.73874,958.12305,500.86188,957.49713Q500.08286,956.88446,498.9867,956.35803Q498.38486,956.079,497.4092,955.77966Q495.8445,955.84753,494.7788,956.0445Q493.06744,956.4167,491.58328,956.9985Q490.86972,957.3502,491.2885,957.8605Q491.4116,957.9861,491.69827,957.99365Q491.69153,958.0575,492.959,957.7062Q493.14133,957.662,493.555,957.6192Q494.15637,957.5538,495.5864,957.64014Q495.3645,958.3518,495.5825,958.93774L496.04727,960.14935L496.40863,961.44476Q496.52,961.8144,496.5481,961.8663Q496.74084,962.36017,497.10202,962.4735Q498.1021,962.6935,499.63245,962.66003Q500.62192,962.60944,501.87268,962.3128 Z"/>
</g>
<g style="fill:rgb(255,182,152); fill-opacity:1.0; stroke-linejoin: miter">
<path d="M510.15,939.5117L510.15,939.51184C509.2573,939.7885,508.66824,940.02966,508.3589,940.19165C508.12613,940.3137,507.66458,940.64484,506.99588,941.22974L506.6937,944.61786L507.4263,946.255C506.7538,948.28296,506.4528,949.4633,506.4761,949.80066C506.49554,950.0819,506.58423,950.22766,506.7892,950.23566L507.06485,950.22205L508.42804,950.00934L508.78934,950.973L510.0673,951.2438L509.41626,951.94775L510.0304,952.9391C509.7314,953.3598,509.6533,953.6852,509.74756,953.9356C509.82166,954.13257,510.01294,954.4578,510.37112,954.8951L511.13986,955.1156L514.215,955.00464C515.2684,956.9091,515.44806,956.7769,515.44806,956.7769C516.78784,955.79065,521.50024,949.6427,521.50024,949.6427L523.60736,948.18036L522.68225,947.3358L522.3485,947.9152L521.4757,948.1219C520.0236,946.32056,518.97687,945.1813,518.35266,944.6816C517.6053,944.08344,516.9259,943.7958,516.2979,943.85455C515.46515,943.93274,514.8948,944.4779,514.489,945.437C514.265,945.9665,514.24634,947.1154,514.52765,948.9274L512.83417,948.98956L512.3244,945.08307L510.0815,943.76L510.14978,939.52515L510.15,939.5117 Z"/>
</g>
<g style="fill:rgb(0,0,0); fill-opacity:1.0; stroke-linejoin: miter">
<path d="M513.3492,932.90234L509.4058,933.9335L508.18115,934.7383L506.99863,935.8791L505.729,939.3583L505.66965,940.20984Q506.21432,941.30426,506.97437,941.23175L507.1909,941.2391L509.627,940.472Q509.52145,943.59155,509.94366,944.3751Q510.09854,944.7028,510.35193,944.87946Q510.4958,944.9822,510.6618,945.0549Q511.63153,945.3977,511.69467,945.4711Q512.009,945.6579,512.1707,945.96924Q512.60254,946.6656,512.6413,949.3387Q513.4154,949.5833,513.87146,949.56866Q514.5331,949.54565,514.77026,948.9206Q514.885,948.6186,514.9363,948.15344Q515.0859,945.67285,515.16046,945.59344Q515.27936,944.95874,515.6486,944.9096Q515.9997,944.8798,516.5927,945.2959L519.0198,947.2607Q519.7508,947.80945,520.36096,948.1353Q521.67395,948.8386,522.1719,948.4239Q522.4547,948.2081,522.593,947.61945Q522.7455,947.02673,522.8404,945.83295Q523.25616,944.04553,523.3587,943.1305L523.74835,941.94794L523.52527,940.50385L523.3567,938.56116L522.6264,937.67395L519.4469,934.6811L515.6902,932.8111L513.37115,932.9014 Z"/>
</g>
<g style="fill:rgb(255,255,255); fill-opacity:1.0; stroke-linejoin: miter">
<path d="M503.5894,958.9695Q503.16284,958.8239,502.8313,959.04083Q503.51086,959.5777,503.64563,959.85596Q503.81625,960.1598,503.58694,960.47375Q503.4683,960.6454,503.22174,960.86383L500.83435,962.927L503.4801,965.5914L503.4873,965.59705L506.64752,961.8621L503.59393,958.9738 Z"/>
</g>
<g style="fill:rgb(255,255,255); fill-opacity:1.0; stroke-linejoin: miter">
<path d="M522.4434,946.60583L514.4348,956.14L514.7424,956.4512L514.1462,957.5954L517.12805,962.976L523.8423,947.693L522.4587,946.6176 Z"/>
</g>
<g style="fill:rgb(1,25,48); fill-opacity:1.0; stroke-linejoin: miter">
<path d="M523.5601,947.1938L523.5601,947.1939L523.5601,947.1939L520.9296,951.88257L516.9962,962.7581L513.8699,966.34894C512.79767,966.6147,509.5943,964.179,504.78073,958.5809C505.82498,959.86145,502.1941,964.37854,501.83875,965.47534L510.3312,973.94L508.28952,976.7199C508.20364,977.41956,508.17258,978.06757,508.1247,978.6595C508.043,979.6714,508.0307,980.86237,508.5263,982.1141C508.9245,983.1194,509.49792,983.54144,509.8496,983.6825C511.0312,984.1566,512.2297,984.38855,513.50165,984.24475L517.14294,982.4859L515.8591,984.3078L515.5602,984.43823L528.6327,984.4385L529.12994,975.79736L529.0126,963.8557C528.97534,963.9004,528.9551,963.9085,528.9519,963.8801C529.1482,962.6306,529.31854,958.0906,529.4631,950.25934C529.18726,949.8274,528.89294,949.5585,528.5801,949.4529L525.8341,949.0545C525.3315,948.3733,524.5734,947.753,523.5601,947.1938L523.5601,947.1939L523.5601,947.1938 Z"/>
</g>
<g style="fill:rgb(1,25,48); fill-opacity:1.0; stroke-linejoin: miter">
<path d="M524.6025,948.26025L524.6025,948.2612L524.6025,948.2622L524.6025,948.2632L507.60352,1006.6863C520.2749,1009.11804,531.7936,1007.2764,534.17017,1003.5833C538.6881,996.5626,542.4503,977.2893,541.8062,972.3473C541.3532,968.8718,540.26044,965.5206,538.726,962.2884C537.6656,960.0546,536.53503,958.1322,535.50916,956.42303C534.6715,955.0274,533.438,953.2778,531.5836,951.3479C530.76544,950.4964,529.8847,949.9199,529.0562,949.50275L528.19104,949.1661C526.6371,948.8792,525.7366,948.67957,525.47797,948.6029C524.9976,948.4606,524.70233,948.3584,524.6025,948.26025L524.6025,948.2612L524.6025,948.26025L524.6025,948.2612 Z"/>
</g>
<g style="fill:rgb(0,0,0); fill-opacity:1.0; stroke-linejoin: miter">
<path d="M511.01047,951.5891L511.01047,951.5891L511.01047,951.5891L511.0104,951.58923 Z"/>
</g>
<g style="fill:rgb(255,255,255); fill-opacity:0.75686276; stroke-linejoin: miter">
<path d="M506.39703,960.99835L506.39716,960.9986L506.39703,960.9986L506.39703,960.99835 Z"/>
</g>
<g style="fill:rgb(1,25,48); fill-opacity:1.0; stroke-linejoin: miter">
<path d="M505.29498,1032.0616L504.96402,1032.2744Q502.83185,1033.7333,501.14795,1033.9182Q499.7375,1034.1552,496.2932,1032.9664L495.9221,1034.0052L487.13428,1033.9421L484.4565,1000.296L506.03793,1001.2881L505.29498,1032.0616"/>
</g>
<g style="fill:rgb(164,47,45); fill-opacity:1.0; stroke-linejoin: miter">
<path d="M505.19754,1005.4983L527.07324,1005.52325L548.9489,1005.5482Q548.9464,1007.77094,548.94385,1009.9936Q527.0682,1009.9686,505.19244,1009.9437Q505.19498,1007.721,505.19754,1005.4983"/>
</g>
<g style="fill:rgb(1,25,48); fill-opacity:1.0; stroke-linejoin: miter">
<path d="M474.31473,1002.1593L474.31473,1002.16034L466.8893,1033.7585Q464.02298,1032.291,462.39713,1032.364Q460.866,1032.3191,457.75522,1033.9475L463.64493,1001.247L474.31473,1002.1593"/>
</g>
<g style="fill:rgb(0,0,0); fill-opacity:1.0; stroke-linejoin: miter">
<path d="M465.9871,1032.6641L465.76782,1034.9517Q467.27722,1036.8379,467.7781,1037.5759Q468.59164,1038.7957,468.65216,1038.9905Q469.37393,1040.3328,468.86554,1041.0801Q468.2785,1042.0068,465.54126,1042.196Q462.67245,1042.3608,460.699,1041.5776Q459.76193,1041.1777,459.2239,1040.4382Q458.81094,1039.9946,458.2526,1038.2703L458.69785,1031.7708L465.9871,1032.6641"/>
</g>
<g style="fill:rgb(1,25,48); fill-opacity:1.0; stroke-linejoin: miter">
<path d="M434.86932,1002.3254L434.86932,1002.3264L442.39227,1033.9014Q445.26663,1032.4197,446.88824,1032.4934Q448.40698,1032.4436,451.5269,1034.0623L445.53625,1001.3801L434.86932,1002.3254"/>
</g>
<g style="fill:rgb(0,0,0); fill-opacity:1.0; stroke-linejoin: miter">
<path d="M443.29102,1032.8044L443.5174,1035.0913Q442.01382,1036.9822,441.51523,1037.7217Q440.70547,1038.9441,440.64554,1039.1392Q439.92795,1040.4834,440.43863,1041.2288Q441.02856,1042.1538,443.76633,1042.335Q446.57736,1042.4976,448.6009,1041.7039Q449.54532,1041.2974,450.0782,1040.5574Q450.4898,1040.1125,451.04282,1038.3867L450.5775,1031.8887L443.29102,1032.8044"/>
</g>
<g style="fill:rgb(214,133,76); fill-opacity:1.0; stroke-linejoin: miter">
<path d="M389.7278,983.7879L456.44403,984.0285L523.1602,984.26917Q523.1493,987.2927,523.1384,990.3163Q456.42224,990.07666,389.70605,989.83704Q389.71695,986.81244,389.7278,983.7879"/>
</g>
<g style="fill:rgb(214,133,76); fill-opacity:1.0; stroke-linejoin: miter">
<path d="M502.25616,994.5028L504.14447,994.48145L506.03278,994.4601Q506.333,1020.36816,506.63324,1046.2762Q504.74496,1046.2986,502.8567,1046.321Q502.55643,1020.4119,502.25616,994.5028"/>
</g>
<g style="fill:rgb(1,25,48); fill-opacity:1.0; stroke-linejoin: miter">
<path d="M440.98193,984.2974L440.98193,984.2984Q436.05518,984.57245,433.8751,983.7894Q431.9615,983.20105,431.33768,981.0576Q430.39508,976.5023,435.33362,963.1344Q436.90454,958.25,440.0843,955.7075Q441.48285,954.7024,443.19208,954.0117Q443.44254,953.79456,449.4805,951.8706Q450.9368,951.3166,452.75827,950.3013L453.65482,950.02527Q454.74808,949.9204,456.1454,950.36383L464.0178,952.7795L466.77524,953.7354Q470.83557,955.40704,472.09152,957.00525Q473.01407,957.8468,474.28897,960.3281Q474.8538,961.4009,476.8762,967.07605Q479.25912,973.2271,479.57416,977.63696Q479.6273,980.7902,477.60538,982.1961Q476.553,983.38226,470.59567,984.58276L467.0363,977.81323L470.2327,976.9532L468.61038,970.9229L466.7433,984.08936L442.51184,984.47516L441.6516,970.8981L439.6931,976.5706L443.29822,977.9171L440.98193,984.2974"/>
</g>
<g style="fill:rgb(255,255,255); fill-opacity:1.0; stroke-linejoin: miter">
<path d="M459.86224,951.7326L457.43427,952.12476L455.00626,952.51685Q452.3476,952.4413,449.68896,952.3657Q450.81033,968.28033,451.9317,984.195Q455.91165,984.2586,459.8916,984.3222L459.86224,951.7326"/>
</g>
<g style="fill:rgb(244,67,54); fill-opacity:0.12941177; stroke-linejoin: miter">
<path d="M457.40576,951.1258L457.10657,951.2548Q456.04385,951.71246,455.88022,951.74774Q455.50204,951.8767,455.1647,951.959Q454.55984,952.12756,453.83865,952.0908Q453.26712,952.03656,452.49503,951.67346Q452.37903,951.6305,451.80722,951.275Q451.4568,951.0518,450.98596,950.7265L454.01175,954.4745L457.40576,951.1258"/>
</g>
<g style="fill:rgb(255,255,255); fill-opacity:1.0; stroke-linejoin: miter">
<path d="M450.3927,950.7468C446.70673,954.763,455.17206,980.7159,455.29935,978.48206C455.42688,976.24384,455.75552,974.0272,456.20078,971.8163C456.3158,971.2452,456.63828,969.6228,457.3848,967.00195C458.79803,962.0404,459.52267,963.4351,459.77478,960.7398C459.81998,960.2566,460.09927,957.31683,460.34885,955.7828C460.65454,953.9036,460.1892,951.2008,458.75082,949.8858 Z"/>
</g>
<g style="fill:rgb(4,2,0); fill-opacity:0.28235295; stroke-linejoin: miter">
<path d="M456.02713,956.04913L456.02713,956.0501C455.7221,955.9795,455.30322,955.9094,454.77036,955.8389L454.43698,957.3478L454.63248,957.6556L454.3583,957.7044L454.3386,957.7932L459.05228,957.6956L458.9203,957.59424C458.1402,956.9814,457.49973,956.57025,456.9998,956.35815C456.88043,956.30756,456.75952,956.26373,456.63943,956.21954C456.5786,956.19714,456.39612,956.14154,456.08786,956.06323C456.0682,956.0582,456.0479,956.0538,456.02713,956.04913L456.02713,956.0501 Z M452.975,955.7741L452.975,955.7751C452.05383,956.24255,451.76376,956.4674,451.3944,956.79315C450.97836,957.1601,450.53192,957.6701,450.06528,958.3351L449.95557,958.48645L454.3583,957.7044L454.43698,957.3478 Z"/>
</g>
<g style="fill:rgb(0,0,0); fill-opacity:1.0; stroke-linejoin: miter">
<path d="M448.61453,944.53326L448.49106,944.1019C447.4013,940.53143,447.03635,938.1766,447.27707,937.0106C447.45233,936.16174,447.78085,935.21466,448.38077,934.1902C448.9927,933.14514,449.699,932.3102,450.49768,931.6813C451.01892,931.2709,451.68716,931.00476,452.50876,930.9069C453.2414,930.81964,454.29126,930.9055,455.64313,931.20624C458.09668,931.752,459.72083,932.269,460.5501,932.65283C461.48108,933.08374,462.0337,933.5942,462.18787,934.2283C462.37628,934.56116,462.45068,935.56683,462.4184,937.2455C462.39673,938.37067,462.28287,941.409,460.9994,944.8735L448.61453,944.53326 Z"/>
</g>
<g style="fill:rgb(255,182,152); fill-opacity:1.0; stroke-linejoin: miter">
<path d="M455.19702,956.23883L449.9748,952.21875L450.1312,950.7971C449.50098,950.1123,449.1226,949.51434,448.94565,949.0205C448.77432,948.54236,448.63074,947.68365,448.5647,946.4256C448.20825,946.69086,447.8999,946.4282,447.61633,945.6459C447.3195,944.8269,447.09735,943.9574,447.09406,943.0257C447.09073,942.08514,447.33868,941.5959,447.7168,941.5557C447.94928,941.59796,448.20465,942.20105,448.48297,943.36487C448.7975,941.1616,449.0338,939.6452,449.1792,938.81335C449.31378,938.0434,449.5146,937.38257,449.80402,936.838C450.0955,936.2896,450.54034,936.04767,451.12915,936.10706L451.73294,936.2071C453.24908,936.64935,454.1053,936.8626,454.3016,936.8468C454.43445,936.88104,454.84186,936.8971,455.52383,936.895L458.09512,936.72363C458.44354,936.6845,458.81415,936.77936,459.2083,937.00586C459.37897,937.10394,459.57803,937.34106,459.70148,937.755C460.15683,939.282,460.30276,940.1644,460.32898,940.36743C460.41998,941.0722,460.4582,942.4466,460.35913,944.5033C460.72467,943.611,461.12903,942.9442,461.66327,942.65204C461.9737,942.48224,462.0551,942.94244,461.82758,943.8704C461.53812,945.05096,461.25317,945.9097,460.98627,946.45123C460.6853,947.0618,460.349,947.4615,459.97272,947.64777L459.11298,949.8611L459.1826,951.9397L455.19702,956.23883 Z"/>
</g>
<g style="fill:rgb(0,0,0); fill-opacity:1.0; stroke-linejoin: miter">
<path d="M452.8125,955.93524L456.00153,955.7354L455.51727,958.5984L455.5954,960.315L457.43683,978.74817L452.84085,979.017L453.7078,958.5635L452.8125,955.93524 Z"/>
</g>
<g style="fill:rgb(255,0,0); fill-opacity:0.09019608; stroke-linejoin: miter">
<path d="M458.82642,950.26624L458.4431,950.5525Q457.2904,951.4418,456.16275,952.0566Q455.7878,952.25134,455.41843,952.3852L455.05078,952.49994L454.68665,952.57654L454.22757,952.6129Q453.87875,952.61176,453.53708,952.5324L453.1969,952.4371Q452.8583,952.3239,452.52493,952.154Q451.69022,951.7433,450.22778,950.5662L454.2636,954.226L458.82642,950.26624"/>
</g>
<g style="fill:rgb(255,182,152); fill-opacity:1.0; stroke-linejoin: miter">
<path d="M470.30438,984.2446L462.46848,984.50354L454.21008,984.18677L453.60056,976.8041Q454.8585,976.6515,455.3967,976.6402Q456.5186,976.5881,457.5007,976.84827Q457.8236,976.9378,458.14963,977.0626Q460.34235,978.002,460.63116,978.0768Q461.4301,978.36194,462.3631,978.5065Q464.34872,978.8114,468.48795,978.52765L470.30438,984.2446"/>
</g>
<g style="fill:rgb(1,25,48); fill-opacity:1.0; stroke-linejoin: miter">
<path d="M473.63684,976.1522L470.14728,977.0726L463.03275,978.0163L463.43604,985.23724Q466.22086,985.43335,467.55054,985.32886Q469.3669,985.2074,470.88922,984.78784Q472.78745,984.2969,475.93347,983.1299L473.63684,976.1522"/>
</g>
<g style="fill:rgb(255,182,152); fill-opacity:1.0; stroke-linejoin: miter">
<path d="M442.3475,984.4329L450.18234,984.72003L458.44193,984.43304L459.0781,977.05273Q457.80164,976.89294,457.2553,976.88116Q456.1364,976.82996,455.17773,977.08276Q454.8545,977.17114,454.52805,977.2948Q452.33194,978.22626,452.04282,978.3Q451.23547,978.58325,450.32407,978.7212Q448.52066,979.02246,444.18448,978.72235L442.3475,984.4329"/>
</g>
<g style="fill:rgb(1,25,48); fill-opacity:1.0; stroke-linejoin: miter">
<path d="M439.04425,976.3284L442.5304,977.2613L449.64148,978.2308L449.2121,985.4503Q442.47656,985.21454,440.3358,984.9939Q437.36716,984.718,435.68195,984.23627Q434.39355,983.87885,433.3254,983.48615L439.04425,976.3284"/>
</g>
<g style="fill:rgb(0,0,0); fill-opacity:1.0; stroke-linejoin: miter">
<path d="M507.07623,963.604L507.07623,963.604L507.07626,963.60406L507.07623,963.604L507.07623,963.604L507.07623,963.604L507.07626,963.60406Q507.07623,963.604,507.07623,963.604"/>
</g>
<g style="fill:rgb(0,0,0); fill-opacity:1.0; stroke-linejoin: miter">
<path d="M491.6119,1034.9404L491.6119,1034.9404Q512.07764,1035.8501,491.6119,1034.9404"/>
</g>
<g style="fill:rgb(214,133,76); fill-opacity:1.0; stroke-linejoin: miter">
<path d="M407.05,994.705L410.8266,994.6623L411.42706,1046.4784L407.6505,1046.5232L407.05,994.705"/>
</g>
<g style="fill:rgb(3,24,51); fill-opacity:1.0; stroke-linejoin: miter">
<path d="M450.89798,853.73236L451.5269,853.7321L452.15582,853.7319Q452.162,867.6312,452.16818,881.5306Q451.53928,881.5309,450.91034,881.53125Q450.90417,867.6318,450.89798,853.73236"/>
</g>
<g style="fill:rgb(3,24,51); fill-opacity:1.0; stroke-linejoin: miter">
<path d="M446.50058,880.35156L451.77786,880.3493L457.05515,880.34705Q457.0576,885.86255,457.06006,891.37805Q451.78278,891.3805,446.5055,891.38293Q446.50305,885.86725,446.50058,880.35156"/>
</g>
<g style="fill:rgb(3,24,51); fill-opacity:1.0; stroke-linejoin: miter">
<path d="M452.18222,886.4045L450.7806,886.4965Q448.03064,886.7865,445.70752,887.9293Q444.54605,888.5009,443.4913,889.28546Q442.88528,889.55707,440.59122,892.09344Q438.89798,894.2011,438.0159,896.7567Q437.12875,899.031,437.07358,902.8787L467.2798,902.8651Q467.25983,899.0177,466.35776,896.744Q466.26328,896.03516,464.5751,893.1641Q463.82907,892.0551,462.88004,891.05804Q461.93106,890.06134,460.8757,889.2777Q459.82007,888.4939,458.65814,887.9235L457.46948,887.40656Q455.0389,886.479,452.18222,886.4045 Z"/>
</g>
<g style="fill:rgb(180,97,53); fill-opacity:1.0; stroke-linejoin: miter">
<path d="M406.68823,987.7033L456.43372,987.6154L506.1792,987.5275Q506.19415,995.9401,506.2091,1004.3527Q456.46365,1004.4416,406.71817,1004.53046Q406.70322,996.1169,406.68823,987.7033"/>
</g>
</g>
</svg>